# xmcd CD database file
#
# Track frame offsets:
#	150
#	11647
#	25511
#	45364
#	65225
#	83931
#	94873
#	110847
#	122739
#	139861
#	154831
#
# Disc length: 2241 seconds
#
# Revision: 0
# Processed by: cddbd v1.5.2PL0 Copyright (c) Steve Scherf et al.
# Submitted via: CDex 1.51
#
DISCID=9008bf0b
DTITLE=Singers Unlimited and Art van Damme - Invitation
DYEAR=1974
DGENRE=Jazz
TTITLE0=Spring is here
TTITLE1=But Beautiful
TTITLE2=We Could Be Flying
TTITLE3=Violets for Your Furs
TTITLE4=Invitation
TTITLE5=Cherry
TTITLE6=Ecstasy
TTITLE7=Let There Be love
TTITLE8=My One and Only Love
TTITLE9=Wave
TTITLE10=Good Bye
EXTD=YEAR: 1974
EXTT0=
EXTT1=
EXTT2=
EXTT3=
EXTT4=
EXTT5=
EXTT6=
EXTT7=
EXTT8=
EXTT9=
EXTT10=
PLAYORDER=
